<?xml version="1.0" standalone="no"?>
<!DOCTYPE svg PUBLIC "-//W3C//DTD SVG 20010904//EN"
 "http://www.w3.org/TR/2001/REC-SVG-20010904/DTD/svg10.dtd">
<svg version="1.0" xmlns="http://www.w3.org/2000/svg"
 width="64.000000pt" height="64.000000pt" viewBox="0 0 64.000000 64.000000"
 preserveAspectRatio="xMidYMid meet">

<g transform="translate(0.000000,64.000000) scale(0.100000,-0.100000)"
fill="#000000" stroke="none">
<path d="M210 565 c22 -32 42 -45 67 -45 15 0 27 -8 33 -22 5 -14 9 -17 9 -7
1 21 -19 39 -46 39 -12 0 -34 12 -49 28 -15 15 -21 18 -14 7z"/>
<path d="M452 543 c-2 -42 -22 -73 -48 -73 -8 0 -14 -4 -14 -9 0 -6 12 -6 30
1 33 11 44 36 37 89 -4 32 -4 31 -5 -8z"/>
<path d="M261 364 c0 -11 3 -14 6 -6 3 7 2 16 -1 19 -3 4 -6 -2 -5 -13z"/>
<path d="M351 364 c0 -11 3 -14 6 -6 3 7 2 16 -1 19 -3 4 -6 -2 -5 -13z"/>
<path d="M296 319 c4 -8 30 -6 38 2 3 3 -5 5 -19 5 -13 0 -22 -3 -19 -7z"/>
<path d="M274 265 c15 -8 34 -15 41 -15 7 0 26 7 41 15 18 9 23 15 12 15 -9 0
-20 -4 -23 -10 -3 -5 -17 -10 -30 -10 -13 0 -27 5 -30 10 -3 6 -14 10 -23 10
-11 0 -6 -6 12 -15z"/>
<path d="M253 3 c9 -2 23 -2 30 0 6 3 -1 5 -18 5 -16 0 -22 -2 -12 -5z"/>
<path d="M353 3 c9 -2 23 -2 30 0 6 3 -1 5 -18 5 -16 0 -22 -2 -12 -5z"/>
</g>
</svg>
